<mxfile host="app.diagrams.net" modified="2023-05-19T14:48:41.113Z" agent="Mozilla/5.0 (Windows NT 10.0; Win64; x64) AppleWebKit/537.36 (KHTML, like Gecko) Chrome/113.0.0.0 Safari/537.36" etag="Z1nzJjAwmA8SGrSa5R9g" version="21.3.2" type="device">
  <diagram name="Page-1" id="Hq6sXyl4BiipsDH7eSra">
    <mxGraphModel dx="794" dy="1582" grid="1" gridSize="10" guides="1" tooltips="1" connect="1" arrows="1" fold="1" page="1" pageScale="1" pageWidth="827" pageHeight="1169" math="0" shadow="0">
      <root>
        <mxCell id="0" />
        <mxCell id="1" parent="0" />
        <mxCell id="uVNyJZlHKD2b_nxIgIla-1" value="Пользователь" style="shape=umlActor;verticalLabelPosition=bottom;verticalAlign=top;html=1;outlineConnect=0;" vertex="1" parent="1">
          <mxGeometry x="320" y="160" width="30" height="60" as="geometry" />
        </mxCell>
        <mxCell id="uVNyJZlHKD2b_nxIgIla-2" value="" style="endArrow=classic;html=1;rounded=0;strokeWidth=1;jumpSize=6;startSize=2;arcSize=10;entryX=0.5;entryY=1;entryDx=0;entryDy=0;" edge="1" parent="1" target="uVNyJZlHKD2b_nxIgIla-3">
          <mxGeometry width="50" height="50" relative="1" as="geometry">
            <mxPoint x="335" y="150" as="sourcePoint" />
            <mxPoint x="335" y="97" as="targetPoint" />
          </mxGeometry>
        </mxCell>
        <mxCell id="uVNyJZlHKD2b_nxIgIla-3" value="Зарегестрироваться" style="ellipse;whiteSpace=wrap;html=1;" vertex="1" parent="1">
          <mxGeometry x="262.5" y="20" width="145" height="50" as="geometry" />
        </mxCell>
        <mxCell id="uVNyJZlHKD2b_nxIgIla-4" value="Авторизоваться" style="ellipse;whiteSpace=wrap;html=1;" vertex="1" parent="1">
          <mxGeometry x="620" y="-7" width="145" height="50" as="geometry" />
        </mxCell>
        <mxCell id="uVNyJZlHKD2b_nxIgIla-5" value="Просматривать книги" style="ellipse;whiteSpace=wrap;html=1;" vertex="1" parent="1">
          <mxGeometry x="620" y="73" width="145" height="50" as="geometry" />
        </mxCell>
        <mxCell id="uVNyJZlHKD2b_nxIgIla-6" value="Просмотреть информацию о библиотеке" style="ellipse;whiteSpace=wrap;html=1;" vertex="1" parent="1">
          <mxGeometry x="620" y="153" width="145" height="50" as="geometry" />
        </mxCell>
        <mxCell id="uVNyJZlHKD2b_nxIgIla-7" value="Изменить тему приложения" style="ellipse;whiteSpace=wrap;html=1;" vertex="1" parent="1">
          <mxGeometry x="620" y="233" width="145" height="50" as="geometry" />
        </mxCell>
        <mxCell id="uVNyJZlHKD2b_nxIgIla-8" value="Изменить язык приложения" style="ellipse;whiteSpace=wrap;html=1;" vertex="1" parent="1">
          <mxGeometry x="620" y="311" width="145" height="50" as="geometry" />
        </mxCell>
        <mxCell id="uVNyJZlHKD2b_nxIgIla-10" value="Скачать книгу" style="ellipse;whiteSpace=wrap;html=1;" vertex="1" parent="1">
          <mxGeometry x="262.5" y="310" width="145" height="50" as="geometry" />
        </mxCell>
        <mxCell id="uVNyJZlHKD2b_nxIgIla-12" value="««расширение»»" style="endArrow=open;endSize=12;dashed=1;html=1;rounded=0;entryX=0.301;entryY=0.992;entryDx=0;entryDy=0;exitX=0.5;exitY=0;exitDx=0;exitDy=0;entryPerimeter=0;" edge="1" parent="1" source="uVNyJZlHKD2b_nxIgIla-13" target="uVNyJZlHKD2b_nxIgIla-10">
          <mxGeometry x="-0.2" width="160" relative="1" as="geometry">
            <mxPoint x="310" y="430" as="sourcePoint" />
            <mxPoint x="310" y="330" as="targetPoint" />
            <Array as="points" />
            <mxPoint as="offset" />
          </mxGeometry>
        </mxCell>
        <mxCell id="uVNyJZlHKD2b_nxIgIla-13" value="Купить книгу" style="ellipse;whiteSpace=wrap;html=1;" vertex="1" parent="1">
          <mxGeometry x="190" y="400" width="145" height="50" as="geometry" />
        </mxCell>
        <mxCell id="uVNyJZlHKD2b_nxIgIla-14" value="Оставить отзыв на книгу" style="ellipse;whiteSpace=wrap;html=1;" vertex="1" parent="1">
          <mxGeometry x="350" y="398" width="145" height="50" as="geometry" />
        </mxCell>
        <mxCell id="uVNyJZlHKD2b_nxIgIla-15" value="Написать в тех. поддержку" style="ellipse;whiteSpace=wrap;html=1;" vertex="1" parent="1">
          <mxGeometry x="80" y="100" width="145" height="50" as="geometry" />
        </mxCell>
        <mxCell id="uVNyJZlHKD2b_nxIgIla-16" value="Просмотр профиля" style="ellipse;whiteSpace=wrap;html=1;" vertex="1" parent="1">
          <mxGeometry x="80" y="190" width="145" height="50" as="geometry" />
        </mxCell>
        <mxCell id="uVNyJZlHKD2b_nxIgIla-17" value="Изменение профиля" style="ellipse;whiteSpace=wrap;html=1;" vertex="1" parent="1">
          <mxGeometry x="80" y="300" width="145" height="50" as="geometry" />
        </mxCell>
        <mxCell id="uVNyJZlHKD2b_nxIgIla-19" value="" style="endArrow=classic;html=1;rounded=0;strokeWidth=1;jumpSize=6;startSize=2;arcSize=10;entryX=0.5;entryY=0;entryDx=0;entryDy=0;" edge="1" parent="1" target="uVNyJZlHKD2b_nxIgIla-10">
          <mxGeometry width="50" height="50" relative="1" as="geometry">
            <mxPoint x="335" y="250" as="sourcePoint" />
            <mxPoint x="334.5" y="170" as="targetPoint" />
          </mxGeometry>
        </mxCell>
        <mxCell id="uVNyJZlHKD2b_nxIgIla-21" value="««расширение»»" style="endArrow=open;endSize=12;dashed=1;html=1;rounded=0;entryX=0.744;entryY=0.942;entryDx=0;entryDy=0;exitX=0.5;exitY=0;exitDx=0;exitDy=0;entryPerimeter=0;" edge="1" parent="1" source="uVNyJZlHKD2b_nxIgIla-14" target="uVNyJZlHKD2b_nxIgIla-10">
          <mxGeometry x="-0.2" width="160" relative="1" as="geometry">
            <mxPoint x="360" y="460" as="sourcePoint" />
            <mxPoint x="360" y="360" as="targetPoint" />
            <Array as="points">
              <mxPoint x="410" y="390" />
            </Array>
            <mxPoint as="offset" />
          </mxGeometry>
        </mxCell>
        <mxCell id="uVNyJZlHKD2b_nxIgIla-22" value="" style="endArrow=classic;html=1;rounded=0;strokeWidth=1;jumpSize=6;startSize=2;arcSize=10;entryX=0.986;entryY=0.64;entryDx=0;entryDy=0;entryPerimeter=0;" edge="1" parent="1" target="uVNyJZlHKD2b_nxIgIla-15">
          <mxGeometry width="50" height="50" relative="1" as="geometry">
            <mxPoint x="310" y="170" as="sourcePoint" />
            <mxPoint x="280" y="130" as="targetPoint" />
          </mxGeometry>
        </mxCell>
        <mxCell id="uVNyJZlHKD2b_nxIgIla-24" value="««расширение»»" style="endArrow=open;endSize=12;dashed=1;html=1;rounded=0;entryX=0.5;entryY=1;entryDx=0;entryDy=0;exitX=0.5;exitY=0;exitDx=0;exitDy=0;" edge="1" parent="1" source="uVNyJZlHKD2b_nxIgIla-17" target="uVNyJZlHKD2b_nxIgIla-16">
          <mxGeometry x="-0.2" width="160" relative="1" as="geometry">
            <mxPoint x="90" y="280" as="sourcePoint" />
            <mxPoint x="90" y="180" as="targetPoint" />
            <Array as="points" />
            <mxPoint as="offset" />
          </mxGeometry>
        </mxCell>
        <mxCell id="uVNyJZlHKD2b_nxIgIla-23" value="" style="endArrow=classic;html=1;rounded=0;strokeWidth=1;jumpSize=6;startSize=2;arcSize=10;entryX=1;entryY=0.5;entryDx=0;entryDy=0;" edge="1" parent="1" target="uVNyJZlHKD2b_nxIgIla-16">
          <mxGeometry width="50" height="50" relative="1" as="geometry">
            <mxPoint x="310" y="190" as="sourcePoint" />
            <mxPoint x="233" y="142" as="targetPoint" />
          </mxGeometry>
        </mxCell>
        <mxCell id="uVNyJZlHKD2b_nxIgIla-26" value="Администратор" style="shape=umlActor;verticalLabelPosition=bottom;verticalAlign=top;html=1;outlineConnect=0;" vertex="1" parent="1">
          <mxGeometry x="990" y="160" width="30" height="60" as="geometry" />
        </mxCell>
        <mxCell id="uVNyJZlHKD2b_nxIgIla-27" value="Отправить письмо на Email" style="ellipse;whiteSpace=wrap;html=1;" vertex="1" parent="1">
          <mxGeometry x="932.5" y="-76" width="145" height="50" as="geometry" />
        </mxCell>
        <mxCell id="uVNyJZlHKD2b_nxIgIla-28" value="Просмотр списка всех покупок" style="ellipse;whiteSpace=wrap;html=1;" vertex="1" parent="1">
          <mxGeometry x="1120" y="140" width="145" height="50" as="geometry" />
        </mxCell>
        <mxCell id="uVNyJZlHKD2b_nxIgIla-29" value="Подтверждение покупки" style="ellipse;whiteSpace=wrap;html=1;" vertex="1" parent="1">
          <mxGeometry x="1370" y="200" width="145" height="50" as="geometry" />
        </mxCell>
        <mxCell id="uVNyJZlHKD2b_nxIgIla-30" value="Просмотр списка пользователей" style="ellipse;whiteSpace=wrap;html=1;" vertex="1" parent="1">
          <mxGeometry x="932.5" y="34" width="145" height="50" as="geometry" />
        </mxCell>
        <mxCell id="uVNyJZlHKD2b_nxIgIla-31" value="Выполнить &lt;br&gt;фильтрацию книг" style="ellipse;whiteSpace=wrap;html=1;" vertex="1" parent="1">
          <mxGeometry x="620" y="387" width="145" height="50" as="geometry" />
        </mxCell>
        <mxCell id="uVNyJZlHKD2b_nxIgIla-32" value="Поиск по книгам" style="ellipse;whiteSpace=wrap;html=1;" vertex="1" parent="1">
          <mxGeometry x="520" y="480" width="145" height="50" as="geometry" />
        </mxCell>
        <mxCell id="uVNyJZlHKD2b_nxIgIla-33" value="Сортировка по книгам" style="ellipse;whiteSpace=wrap;html=1;" vertex="1" parent="1">
          <mxGeometry x="714" y="480" width="145" height="50" as="geometry" />
        </mxCell>
        <mxCell id="uVNyJZlHKD2b_nxIgIla-34" value="Просмотр каталога книг" style="ellipse;whiteSpace=wrap;html=1;" vertex="1" parent="1">
          <mxGeometry x="1115" y="233" width="145" height="50" as="geometry" />
        </mxCell>
        <mxCell id="uVNyJZlHKD2b_nxIgIla-35" value="Изменение книги" style="ellipse;whiteSpace=wrap;html=1;" vertex="1" parent="1">
          <mxGeometry x="950" y="330" width="145" height="50" as="geometry" />
        </mxCell>
        <mxCell id="uVNyJZlHKD2b_nxIgIla-36" value="Удаление книги" style="ellipse;whiteSpace=wrap;html=1;" vertex="1" parent="1">
          <mxGeometry x="1290" y="330" width="145" height="50" as="geometry" />
        </mxCell>
        <mxCell id="uVNyJZlHKD2b_nxIgIla-37" value="Изменение книги" style="ellipse;whiteSpace=wrap;html=1;" vertex="1" parent="1">
          <mxGeometry x="1116" y="330" width="145" height="50" as="geometry" />
        </mxCell>
        <mxCell id="uVNyJZlHKD2b_nxIgIla-38" value="««расширение»»" style="endArrow=open;endSize=12;dashed=1;html=1;rounded=0;entryX=0.301;entryY=0.942;entryDx=0;entryDy=0;exitX=0.5;exitY=0;exitDx=0;exitDy=0;entryPerimeter=0;" edge="1" parent="1" source="uVNyJZlHKD2b_nxIgIla-32" target="uVNyJZlHKD2b_nxIgIla-31">
          <mxGeometry x="-0.2" width="160" relative="1" as="geometry">
            <mxPoint x="460" y="560" as="sourcePoint" />
            <mxPoint x="460" y="460" as="targetPoint" />
            <Array as="points" />
            <mxPoint as="offset" />
          </mxGeometry>
        </mxCell>
        <mxCell id="uVNyJZlHKD2b_nxIgIla-39" value="««расширение»»" style="endArrow=open;endSize=12;dashed=1;html=1;rounded=0;entryX=0.685;entryY=1.06;entryDx=0;entryDy=0;exitX=0.5;exitY=0;exitDx=0;exitDy=0;entryPerimeter=0;" edge="1" parent="1" source="uVNyJZlHKD2b_nxIgIla-33" target="uVNyJZlHKD2b_nxIgIla-31">
          <mxGeometry x="-0.1992" width="160" relative="1" as="geometry">
            <mxPoint x="460" y="560" as="sourcePoint" />
            <mxPoint x="460" y="460" as="targetPoint" />
            <Array as="points" />
            <mxPoint as="offset" />
          </mxGeometry>
        </mxCell>
        <mxCell id="uVNyJZlHKD2b_nxIgIla-40" value="" style="endArrow=classic;html=1;rounded=0;strokeWidth=1;jumpSize=6;startSize=2;arcSize=10;entryX=0;entryY=0.5;entryDx=0;entryDy=0;" edge="1" parent="1" target="uVNyJZlHKD2b_nxIgIla-4">
          <mxGeometry width="50" height="50" relative="1" as="geometry">
            <mxPoint x="360" y="150" as="sourcePoint" />
            <mxPoint x="345" y="80" as="targetPoint" />
          </mxGeometry>
        </mxCell>
        <mxCell id="uVNyJZlHKD2b_nxIgIla-41" value="" style="endArrow=classic;html=1;rounded=0;strokeWidth=1;jumpSize=6;startSize=2;arcSize=10;entryX=0;entryY=0.5;entryDx=0;entryDy=0;" edge="1" parent="1" target="uVNyJZlHKD2b_nxIgIla-5">
          <mxGeometry width="50" height="50" relative="1" as="geometry">
            <mxPoint x="370" y="160" as="sourcePoint" />
            <mxPoint x="630" y="28" as="targetPoint" />
          </mxGeometry>
        </mxCell>
        <mxCell id="uVNyJZlHKD2b_nxIgIla-42" value="" style="endArrow=classic;html=1;rounded=0;strokeWidth=1;jumpSize=6;startSize=2;arcSize=10;entryX=0;entryY=0.5;entryDx=0;entryDy=0;" edge="1" parent="1" target="uVNyJZlHKD2b_nxIgIla-6">
          <mxGeometry width="50" height="50" relative="1" as="geometry">
            <mxPoint x="373" y="171" as="sourcePoint" />
            <mxPoint x="613" y="179" as="targetPoint" />
          </mxGeometry>
        </mxCell>
        <mxCell id="uVNyJZlHKD2b_nxIgIla-43" value="" style="endArrow=classic;html=1;rounded=0;strokeWidth=1;jumpSize=6;startSize=2;arcSize=10;entryX=0;entryY=0.5;entryDx=0;entryDy=0;" edge="1" parent="1" target="uVNyJZlHKD2b_nxIgIla-7">
          <mxGeometry width="50" height="50" relative="1" as="geometry">
            <mxPoint x="374" y="185" as="sourcePoint" />
            <mxPoint x="614" y="253" as="targetPoint" />
          </mxGeometry>
        </mxCell>
        <mxCell id="uVNyJZlHKD2b_nxIgIla-44" value="" style="endArrow=classic;html=1;rounded=0;strokeWidth=1;jumpSize=6;startSize=2;arcSize=10;entryX=0;entryY=0.5;entryDx=0;entryDy=0;" edge="1" parent="1" target="uVNyJZlHKD2b_nxIgIla-8">
          <mxGeometry width="50" height="50" relative="1" as="geometry">
            <mxPoint x="372" y="202" as="sourcePoint" />
            <mxPoint x="611.2750000000001" y="325.7999999999997" as="targetPoint" />
          </mxGeometry>
        </mxCell>
        <mxCell id="uVNyJZlHKD2b_nxIgIla-45" value="" style="endArrow=classic;html=1;rounded=0;strokeWidth=1;jumpSize=6;startSize=2;arcSize=10;entryX=0;entryY=0.5;entryDx=0;entryDy=0;" edge="1" parent="1" target="uVNyJZlHKD2b_nxIgIla-31">
          <mxGeometry width="50" height="50" relative="1" as="geometry">
            <mxPoint x="367" y="218" as="sourcePoint" />
            <mxPoint x="617" y="410" as="targetPoint" />
          </mxGeometry>
        </mxCell>
        <mxCell id="uVNyJZlHKD2b_nxIgIla-46" value="" style="endArrow=classic;html=1;rounded=0;strokeWidth=1;jumpSize=6;startSize=2;arcSize=10;entryX=1;entryY=0.5;entryDx=0;entryDy=0;" edge="1" parent="1" target="uVNyJZlHKD2b_nxIgIla-5">
          <mxGeometry width="50" height="50" relative="1" as="geometry">
            <mxPoint x="960" y="170" as="sourcePoint" />
            <mxPoint x="630" y="108" as="targetPoint" />
          </mxGeometry>
        </mxCell>
        <mxCell id="uVNyJZlHKD2b_nxIgIla-47" value="" style="endArrow=classic;html=1;rounded=0;strokeWidth=1;jumpSize=6;startSize=2;arcSize=10;entryX=1;entryY=0.5;entryDx=0;entryDy=0;" edge="1" parent="1" target="uVNyJZlHKD2b_nxIgIla-4">
          <mxGeometry width="50" height="50" relative="1" as="geometry">
            <mxPoint x="960" y="150" as="sourcePoint" />
            <mxPoint x="775" y="108" as="targetPoint" />
          </mxGeometry>
        </mxCell>
        <mxCell id="uVNyJZlHKD2b_nxIgIla-48" value="" style="endArrow=classic;html=1;rounded=0;strokeWidth=1;jumpSize=6;startSize=2;arcSize=10;entryX=1;entryY=0.5;entryDx=0;entryDy=0;" edge="1" parent="1" target="uVNyJZlHKD2b_nxIgIla-6">
          <mxGeometry width="50" height="50" relative="1" as="geometry">
            <mxPoint x="950" y="190" as="sourcePoint" />
            <mxPoint x="785" y="118" as="targetPoint" />
          </mxGeometry>
        </mxCell>
        <mxCell id="uVNyJZlHKD2b_nxIgIla-49" value="" style="endArrow=classic;html=1;rounded=0;strokeWidth=1;jumpSize=6;startSize=2;arcSize=10;entryX=1;entryY=0.5;entryDx=0;entryDy=0;" edge="1" parent="1" target="uVNyJZlHKD2b_nxIgIla-7">
          <mxGeometry width="50" height="50" relative="1" as="geometry">
            <mxPoint x="950" y="210" as="sourcePoint" />
            <mxPoint x="795" y="128" as="targetPoint" />
          </mxGeometry>
        </mxCell>
        <mxCell id="uVNyJZlHKD2b_nxIgIla-50" value="" style="endArrow=classic;html=1;rounded=0;strokeWidth=1;jumpSize=6;startSize=2;arcSize=10;entryX=1;entryY=0.5;entryDx=0;entryDy=0;" edge="1" parent="1" target="uVNyJZlHKD2b_nxIgIla-8">
          <mxGeometry width="50" height="50" relative="1" as="geometry">
            <mxPoint x="950" y="230" as="sourcePoint" />
            <mxPoint x="805" y="138" as="targetPoint" />
            <Array as="points" />
          </mxGeometry>
        </mxCell>
        <mxCell id="uVNyJZlHKD2b_nxIgIla-51" value="" style="endArrow=classic;html=1;rounded=0;strokeWidth=1;jumpSize=6;startSize=2;arcSize=10;entryX=1;entryY=0.5;entryDx=0;entryDy=0;" edge="1" parent="1" target="uVNyJZlHKD2b_nxIgIla-31">
          <mxGeometry width="50" height="50" relative="1" as="geometry">
            <mxPoint x="970" y="250" as="sourcePoint" />
            <mxPoint x="815" y="148" as="targetPoint" />
          </mxGeometry>
        </mxCell>
        <mxCell id="uVNyJZlHKD2b_nxIgIla-52" value="" style="endArrow=classic;html=1;rounded=0;strokeWidth=1;jumpSize=6;startSize=2;arcSize=10;entryX=0.5;entryY=1;entryDx=0;entryDy=0;" edge="1" parent="1" target="uVNyJZlHKD2b_nxIgIla-30">
          <mxGeometry width="50" height="50" relative="1" as="geometry">
            <mxPoint x="1005" y="140" as="sourcePoint" />
            <mxPoint x="775" y="28" as="targetPoint" />
          </mxGeometry>
        </mxCell>
        <mxCell id="uVNyJZlHKD2b_nxIgIla-55" value="««расширение»»" style="endArrow=open;endSize=12;dashed=1;html=1;rounded=0;entryX=0.437;entryY=-0.086;entryDx=0;entryDy=0;exitX=1;exitY=1;exitDx=0;exitDy=0;entryPerimeter=0;" edge="1" parent="1" source="uVNyJZlHKD2b_nxIgIla-27" target="uVNyJZlHKD2b_nxIgIla-64">
          <mxGeometry x="-0.2048" width="160" relative="1" as="geometry">
            <mxPoint x="1220" y="20" as="sourcePoint" />
            <mxPoint x="1316" y="-49" as="targetPoint" />
            <Array as="points" />
            <mxPoint as="offset" />
          </mxGeometry>
        </mxCell>
        <mxCell id="uVNyJZlHKD2b_nxIgIla-56" value="««расширение»»" style="endArrow=open;endSize=12;dashed=1;html=1;rounded=0;entryX=0.5;entryY=0;entryDx=0;entryDy=0;exitX=0.5;exitY=1;exitDx=0;exitDy=0;" edge="1" parent="1" source="uVNyJZlHKD2b_nxIgIla-27" target="uVNyJZlHKD2b_nxIgIla-30">
          <mxGeometry x="-0.2" width="160" relative="1" as="geometry">
            <mxPoint x="1060" y="46" as="sourcePoint" />
            <mxPoint x="1131" as="targetPoint" />
            <Array as="points" />
            <mxPoint as="offset" />
          </mxGeometry>
        </mxCell>
        <mxCell id="uVNyJZlHKD2b_nxIgIla-58" value="" style="endArrow=classic;html=1;rounded=0;strokeWidth=1;jumpSize=6;startSize=2;arcSize=10;entryX=0;entryY=0.5;entryDx=0;entryDy=0;" edge="1" parent="1" target="uVNyJZlHKD2b_nxIgIla-28">
          <mxGeometry width="50" height="50" relative="1" as="geometry">
            <mxPoint x="1040" y="180" as="sourcePoint" />
            <mxPoint x="1015" y="94" as="targetPoint" />
          </mxGeometry>
        </mxCell>
        <mxCell id="uVNyJZlHKD2b_nxIgIla-59" value="««расширение»»" style="endArrow=open;endSize=12;dashed=1;html=1;rounded=0;entryX=0.961;entryY=0.762;entryDx=0;entryDy=0;exitX=0;exitY=0.5;exitDx=0;exitDy=0;entryPerimeter=0;" edge="1" parent="1" source="uVNyJZlHKD2b_nxIgIla-29" target="uVNyJZlHKD2b_nxIgIla-28">
          <mxGeometry x="-0.2" width="160" relative="1" as="geometry">
            <mxPoint x="1270" y="132" as="sourcePoint" />
            <mxPoint x="1280" y="170" as="targetPoint" />
            <Array as="points" />
            <mxPoint as="offset" />
          </mxGeometry>
        </mxCell>
        <mxCell id="uVNyJZlHKD2b_nxIgIla-60" value="" style="endArrow=classic;html=1;rounded=0;strokeWidth=1;jumpSize=6;startSize=2;arcSize=10;entryX=0;entryY=0.5;entryDx=0;entryDy=0;" edge="1" parent="1" target="uVNyJZlHKD2b_nxIgIla-34">
          <mxGeometry width="50" height="50" relative="1" as="geometry">
            <mxPoint x="1040" y="210" as="sourcePoint" />
            <mxPoint x="1130" y="175" as="targetPoint" />
          </mxGeometry>
        </mxCell>
        <mxCell id="uVNyJZlHKD2b_nxIgIla-61" value="««расширение»»" style="endArrow=open;endSize=12;dashed=1;html=1;rounded=0;entryX=0;entryY=1;entryDx=0;entryDy=0;exitX=0.5;exitY=0;exitDx=0;exitDy=0;" edge="1" parent="1" source="uVNyJZlHKD2b_nxIgIla-35" target="uVNyJZlHKD2b_nxIgIla-34">
          <mxGeometry x="-0.2" width="160" relative="1" as="geometry">
            <mxPoint x="960" y="451.5" as="sourcePoint" />
            <mxPoint x="1126" y="372.5" as="targetPoint" />
            <Array as="points" />
            <mxPoint as="offset" />
          </mxGeometry>
        </mxCell>
        <mxCell id="uVNyJZlHKD2b_nxIgIla-62" value="««расширение»»" style="endArrow=open;endSize=12;dashed=1;html=1;rounded=0;entryX=0.5;entryY=1;entryDx=0;entryDy=0;exitX=0.5;exitY=0;exitDx=0;exitDy=0;" edge="1" parent="1" source="uVNyJZlHKD2b_nxIgIla-37" target="uVNyJZlHKD2b_nxIgIla-34">
          <mxGeometry x="-0.2" width="160" relative="1" as="geometry">
            <mxPoint x="874" y="499" as="sourcePoint" />
            <mxPoint x="970" y="430" as="targetPoint" />
            <Array as="points" />
            <mxPoint as="offset" />
          </mxGeometry>
        </mxCell>
        <mxCell id="uVNyJZlHKD2b_nxIgIla-63" value="««расширение»»" style="endArrow=open;endSize=12;dashed=1;html=1;rounded=0;entryX=1;entryY=1;entryDx=0;entryDy=0;exitX=0.5;exitY=0;exitDx=0;exitDy=0;" edge="1" parent="1" source="uVNyJZlHKD2b_nxIgIla-36" target="uVNyJZlHKD2b_nxIgIla-34">
          <mxGeometry x="-0.2" width="160" relative="1" as="geometry">
            <mxPoint x="1261" y="330" as="sourcePoint" />
            <mxPoint x="1497" y="261" as="targetPoint" />
            <Array as="points" />
            <mxPoint as="offset" />
          </mxGeometry>
        </mxCell>
        <mxCell id="uVNyJZlHKD2b_nxIgIla-64" value="Просмотр сообщений &lt;br&gt;в поддержку" style="ellipse;whiteSpace=wrap;html=1;" vertex="1" parent="1">
          <mxGeometry x="1115" y="50" width="145" height="50" as="geometry" />
        </mxCell>
        <mxCell id="uVNyJZlHKD2b_nxIgIla-65" value="" style="endArrow=classic;html=1;rounded=0;strokeWidth=1;jumpSize=6;startSize=2;arcSize=10;entryX=0.076;entryY=0.714;entryDx=0;entryDy=0;entryPerimeter=0;" edge="1" parent="1" target="uVNyJZlHKD2b_nxIgIla-64">
          <mxGeometry width="50" height="50" relative="1" as="geometry">
            <mxPoint x="1030" y="160" as="sourcePoint" />
            <mxPoint x="1130" y="175" as="targetPoint" />
          </mxGeometry>
        </mxCell>
        <mxCell id="uVNyJZlHKD2b_nxIgIla-67" value="Отказ в покупке" style="ellipse;whiteSpace=wrap;html=1;" vertex="1" parent="1">
          <mxGeometry x="1370" y="101" width="145" height="50" as="geometry" />
        </mxCell>
        <mxCell id="uVNyJZlHKD2b_nxIgIla-68" value="««расширение»»" style="endArrow=open;endSize=12;dashed=1;html=1;rounded=0;entryX=0.974;entryY=0.267;entryDx=0;entryDy=0;exitX=0;exitY=0.5;exitDx=0;exitDy=0;entryPerimeter=0;" edge="1" parent="1" source="uVNyJZlHKD2b_nxIgIla-67" target="uVNyJZlHKD2b_nxIgIla-28">
          <mxGeometry x="-0.2" width="160" relative="1" as="geometry">
            <mxPoint x="1380" y="235" as="sourcePoint" />
            <mxPoint x="1280" y="170" as="targetPoint" />
            <Array as="points" />
            <mxPoint as="offset" />
          </mxGeometry>
        </mxCell>
      </root>
    </mxGraphModel>
  </diagram>
</mxfile>
